<svg width="236" height="223" viewBox="0 0 236 223" fill="none" xmlns="http://www.w3.org/2000/svg">
<g clip-path="url(#clip0_2_68)">
<path d="M194.692 55.3936C169.707 55.715 150.524 66.188 137.246 86.4976C137.269 86.5293 137.27 86.5552 137.271 86.5812C137.26 86.6853 137.198 86.7198 137.099 86.7101C136.777 87.1878 135.293 89.4425 135.293 89.4425C131.17 95.7483 127.219 103.029 122.917 108.555C114.857 118.83 101.371 126.562 87.7073 128.737C83.34 129.429 78.5172 129.683 73.4191 129.952C47.6448 130.363 21.8203 138.669 1.60211 154.589L24.9252 177.472C26.8212 175.996 31.7471 172.533 31.8676 172.724C38.6863 168.622 46.22 165.633 53.8772 164.016C54.6427 163.868 65.1337 162.529 71.5165 162.18C71.6295 162.176 71.7494 162.166 71.8625 162.162C72.2163 162.163 72.7943 162.106 73.2324 162.092C83.9922 161.672 95.9797 160.058 106.487 156.564C106.983 156.398 107.807 156.125 107.989 156.054C133.012 147.528 151.919 130.249 163.671 108.898C168.737 100.615 173.157 93.3841 178.789 90.2488C178.816 90.2089 178.857 90.1816 178.914 90.1928C186.775 86.1546 203.279 87.5354 212.591 89.402L224.973 57.9189C215.124 55.9074 204.945 55.0554 194.713 55.3864L194.692 55.3936Z" fill="#5F7EFF"/>
</g>
<defs>
<clipPath id="clip0_2_68">
<rect width="221.661" height="101.924" fill="white" transform="matrix(0.712654 -0.701516 0.760128 0.649773 0 156.166)"/>
</clipPath>
</defs>
</svg>
