<svg width="167" height="126" viewBox="0 0 167 126" fill="none" xmlns="http://www.w3.org/2000/svg">
<path d="M41.9195 112.64C33.6395 101.512 25.2595 90.1908 21.1295 77.4995C19.8695 73.6165 19.1895 69.0274 22.3095 65.8504C25.1195 62.9927 30.2395 62.3371 34.4095 63.3793C38.5795 64.4215 41.9895 66.8253 45.1695 69.2711C58.1495 79.2477 69.2795 90.88 78.1295 103.622C85.6895 100.025 93.2395 96.4356 100.8 92.8384C91.7695 83.1728 83.1495 73.2382 74.9995 63.0432C69.8895 56.6555 64.8195 49.8139 64.2195 42.0898C63.9295 38.4001 65.0295 34.1977 68.7595 32.0965C73.0795 29.6675 78.8095 31.0459 83.5095 32.71C107.41 41.1737 128.26 55.1426 143.48 72.5406C151.14 68.8929 158.8 65.2536 166.46 61.6059C158.04 49.8811 148.75 38.6355 137.39 28.8438C121.4 15.0514 100.82 4.22598 77.7695 1.54484C54.7195 -1.13631 29.1995 5.35223 14.3095 20.6323C-1.07047 36.3998 -2.96047 58.7903 3.47953 77.9618C9.25953 95.1665 20.8395 110.396 32.8595 125.163C37.3895 123.012 41.9095 120.86 46.4395 118.708C44.9395 116.691 43.4295 114.666 41.9295 112.649L41.9195 112.64Z" fill="#FFAA00"/>
</svg>
