<svg width="16" height="20" viewBox="0 0 16 20" fill="none" xmlns="http://www.w3.org/2000/svg">
<path fill-rule="evenodd" clip-rule="evenodd" d="M4.03616 1.35626C6.53316 -0.0946041 9.60237 -0.0692453 12.0759 1.42269C14.5252 2.945 16.0138 5.66189 15.9999 8.5845C15.9429 11.4879 14.3467 14.2172 12.3515 16.327C11.1999 17.5502 9.91162 18.6319 8.51301 19.5498C8.36897 19.6331 8.21119 19.6889 8.04746 19.7143C7.88987 19.7076 7.73641 19.6611 7.6009 19.5788C5.46566 18.1996 3.5924 16.4389 2.07125 14.3817C0.79839 12.6644 0.0752399 10.5897 1.32984e-06 8.43933C-0.0016524 5.51111 1.53917 2.80712 4.03616 1.35626ZM5.47945 9.65131C5.89947 10.6868 6.8909 11.3622 7.99082 11.3623C8.7114 11.3674 9.40407 11.0788 9.9145 10.5607C10.4249 10.0426 10.7107 9.338 10.7081 8.60399C10.712 7.48359 10.0524 6.47133 9.0373 6.03985C8.02221 5.60837 6.85189 5.84279 6.07277 6.63365C5.29365 7.42451 5.05942 8.61581 5.47945 9.65131Z" fill="#FFAA00"/>
</svg>
