<svg width="50" height="51" viewBox="0 0 50 51" fill="none" xmlns="http://www.w3.org/2000/svg">
<path d="M48.7205 23.5463C48.314 23.291 47.7047 22.8088 46.9716 22.4109C46.2332 21.9845 45.3401 21.4281 44.3515 20.9225C43.3611 20.402 42.267 19.9173 41.1002 19.4009C39.1921 18.595 37.0777 17.9117 34.8959 17.3361C34.7831 16.8472 34.6767 16.3558 34.5421 15.877C33.7018 12.9295 32.5431 10.1948 31.1935 7.85809C30.5168 6.69013 29.8238 5.62145 29.1326 4.6779C28.4633 3.73436 27.7184 2.91428 27.1446 2.23937C26.6034 1.56362 25.9868 1.03471 25.6512 0.673473C25.282 0.31224 25.0464 0.120361 25.0464 0.120361C25.0464 0.120361 24.8191 0.321417 24.4653 0.695164C24.1452 1.06808 23.5513 1.61785 23.0402 2.31362C21.877 3.70683 20.4619 5.69403 19.2268 8.05831C17.9718 10.4251 16.9114 13.1773 16.1629 16.108C16.1192 16.2824 16.0892 16.4626 16.0483 16.6378C13.2253 17.1968 10.5051 18.011 8.14328 19.0313C6.9437 19.5519 5.81871 20.0991 4.83104 20.6506C3.83973 21.1828 2.97302 21.7977 2.26 22.2682C1.54971 22.7087 0.978576 23.2293 0.594785 23.5071C0.209175 23.8149 0 24.016 0 24.016C0 24.016 0.177344 24.2404 0.514753 24.5933C0.85398 24.9153 1.34418 25.5018 1.98353 26.0257C3.2604 27.2003 5.0684 28.6603 7.28475 29.9842C9.50474 31.3274 12.1294 32.5262 15.0361 33.4264C15.398 33.5365 15.7754 33.6241 16.1465 33.7225C16.2138 33.9912 16.2665 34.2648 16.3402 34.5301C17.1715 37.4767 18.3328 40.2122 19.6861 42.5465C20.3664 43.7144 21.0612 44.7814 21.7551 45.7266C22.429 46.671 23.1739 47.4911 23.7532 48.1677C24.298 48.8443 24.9155 49.3715 25.2547 49.7327C25.6258 50.094 25.8631 50.2859 25.8631 50.2859C25.8631 50.2859 26.0923 50.0848 26.4479 49.711C26.7717 49.3381 27.3656 48.7884 27.8803 48.0926C28.4314 47.3968 29.139 46.5517 29.7729 45.5865C30.4259 44.6196 31.0798 43.5325 31.7119 42.3487C32.9696 39.9795 34.0337 37.2289 34.7731 34.2973C34.8322 34.0637 34.8722 33.8218 34.9259 33.5865C36.1673 33.2195 37.3714 32.8015 38.4946 32.326C39.8651 31.747 41.1293 31.0713 42.2725 30.3813C43.4184 29.6897 44.4315 28.9372 45.3137 28.2264C46.1995 27.5349 46.9325 26.7657 47.5346 26.1633C48.1412 25.5952 48.585 24.9762 48.896 24.63C49.2034 24.2537 49.359 24.0176 49.359 24.0176C49.359 24.0176 49.1371 23.8541 48.7214 23.5471L48.7205 23.5463Z" fill="#FD6F61"/>
</svg>
